<svg width="93" height="96" viewBox="0 0 93 96" fill="none" xmlns="http://www.w3.org/2000/svg">
<g clip-path="url(#clip0_35_54)">
<path d="M74.1092 40.5C72.2467 40.499 70.3944 40.7834 68.6128 41.3438L61.3544 28.5H69.7498C70.1352 28.5 70.5048 28.658 70.7774 28.9393C71.0499 29.2206 71.203 29.6022 71.203 30C71.203 31.1935 71.6622 32.3381 72.4798 33.182C73.2973 34.0259 74.4062 34.5 75.5623 34.5C76.7185 34.5 77.8273 34.0259 78.6449 33.182C79.4624 32.3381 79.9217 31.1935 79.9217 30C79.9217 27.2152 78.85 24.5445 76.9424 22.5754C75.0348 20.6062 72.4476 19.5 69.7498 19.5H53.7655C53.0009 19.5015 52.2502 19.7105 51.5886 20.106C50.927 20.5016 50.3779 21.0698 49.9962 21.7536C49.6145 22.4375 49.4138 23.2129 49.4142 24.0021C49.4145 24.7913 49.616 25.5665 49.9982 26.25L52.9553 31.5H39.8009L34.2827 21.75C33.9008 21.0671 33.3517 20.4999 32.6905 20.105C32.0294 19.7101 31.2793 19.5015 30.5155 19.5H18.8905C17.7343 19.5 16.6255 19.9741 15.8079 20.818C14.9904 21.6619 14.5311 22.8065 14.5311 24C14.5311 25.1935 14.9904 26.3381 15.8079 27.182C16.6255 28.0259 17.7343 28.5 18.8905 28.5H28.0124L32.034 35.625L26.8826 42.3337C22.6762 40.2963 17.8913 39.9249 13.4371 41.2902C8.9828 42.6555 5.16961 45.6623 2.72203 49.7392C0.274459 53.8162 -0.636942 58.6793 0.161007 63.4044C0.958955 68.1295 3.41065 72.3873 7.05024 75.369C10.6898 78.3506 15.2637 79.8482 19.9027 79.5771C24.5418 79.3061 28.9227 77.2854 32.2132 73.8989C35.5036 70.5124 37.4743 65.9962 37.7507 61.2083C38.027 56.4205 36.5899 51.6946 33.7123 47.9287L36.753 43.965L42.867 54.7688C43.1335 55.3187 43.5064 55.8065 43.9627 56.2019C44.4189 56.5973 44.9488 56.892 45.5197 57.0678C46.0905 57.2435 46.6902 57.2967 47.2818 57.2239C47.8733 57.1511 48.4441 56.9539 48.959 56.6446C49.4738 56.3352 49.9218 55.9202 50.2752 55.4252C50.6286 54.9301 50.88 54.3656 51.0138 53.7663C51.1476 53.1671 51.161 52.5459 51.0532 51.9412C50.9454 51.3364 50.7186 50.7608 50.3869 50.25L44.8869 40.5H58.0413L61.0892 45.8925C57.913 49.0212 55.8916 53.1942 55.3725 57.6944C54.8534 62.1946 55.869 66.7409 58.2448 70.552C60.6205 74.3631 64.208 77.201 68.3908 78.5781C72.5736 79.9551 77.0904 79.7852 81.165 78.0976C85.2396 76.41 88.6175 73.3101 90.7183 69.3307C92.8191 65.3512 93.5115 60.7407 92.6765 56.2914C91.8415 51.8422 89.5313 47.832 86.1429 44.9502C82.7545 42.0684 78.4995 40.4949 74.1092 40.5ZM29.0623 60C29.0627 62.1782 28.4067 64.3026 27.1854 66.0788C25.9641 67.8551 24.2379 69.1954 22.2459 69.9139C20.2539 70.6324 18.0947 70.6937 16.0675 70.0892C14.0403 69.4847 12.2453 68.2443 10.9314 66.54C9.61739 64.8356 8.84942 62.7516 8.73385 60.5767C8.61828 58.4018 9.16082 56.2436 10.2863 54.4011C11.4118 52.5587 13.0646 51.1231 15.0156 50.2933C16.9666 49.4636 19.1193 49.2807 21.1755 49.77L15.472 57.2063C14.7542 58.1421 14.4259 59.334 14.5595 60.5197C14.693 61.7054 15.2774 62.7878 16.184 63.5288C17.0906 64.2697 18.2453 64.6085 19.3939 64.4707C20.5426 64.3328 21.5911 63.7296 22.3089 62.7937L28.0124 55.3575C28.7046 56.8007 29.0639 58.3896 29.0623 60ZM74.1092 70.5C72.2589 70.4991 70.4439 69.9773 68.8595 68.9906C67.2752 68.004 65.9816 66.5899 65.118 64.9007C64.2544 63.2115 63.8535 61.3112 63.9585 59.4042C64.0634 57.4973 64.6703 55.6561 65.7138 54.0788L70.342 62.2688C70.9426 63.2578 71.892 63.9672 72.9898 64.2473C74.0876 64.5273 75.2479 64.356 76.2257 63.7696C77.2034 63.1832 77.9222 62.2275 78.2302 61.1044C78.5382 59.9812 78.4114 58.7784 77.8764 57.75L73.2446 49.56C73.5316 49.5338 73.8186 49.5188 74.1092 49.5188C76.807 49.5188 79.3942 50.625 81.3018 52.5941C83.2094 54.5633 84.2811 57.234 84.2811 60.0188C84.2811 62.8035 83.2094 65.4742 81.3018 67.4434C79.3942 69.4125 76.807 70.5188 74.1092 70.5188V70.5Z" fill="#1C786D"/>
</g>
<defs>
<clipPath id="clip0_35_54">
<rect width="93" height="96" fill="white"/>
</clipPath>
</defs>
</svg>
