<svg width="128" height="129" viewBox="0 0 128 129" fill="none" xmlns="http://www.w3.org/2000/svg">
<g clip-path="url(#clip0_35_167)">
<path d="M63.6587 96.7276C63.6587 93.2929 66.416 90.5409 69.856 90.5409C73.2907 90.5409 76.0427 93.2929 76.0427 96.7276C76.0455 97.541 75.8874 98.3471 75.5776 99.0992C75.2677 99.8514 74.8122 100.535 74.2372 101.11C73.6623 101.686 72.9792 102.142 72.2273 102.452C71.4754 102.763 70.6695 102.922 69.856 102.92C69.0421 102.923 68.2355 102.766 67.4827 102.456C66.7299 102.146 66.0458 101.691 65.4698 101.116C64.8937 100.541 64.4371 99.8576 64.1263 99.1054C63.8155 98.3531 63.6566 97.5415 63.6587 96.7276ZM88.8533 96.7329C88.8533 93.2929 91.6107 90.5356 95.0453 90.5356C98.48 90.5356 101.237 93.2929 101.237 96.7276C101.237 100.162 98.48 102.92 95.0507 102.92C94.2367 102.923 93.4301 102.766 92.6774 102.456C91.9246 102.146 91.2405 101.691 90.6644 101.116C90.0884 100.541 89.6318 99.8576 89.321 99.1054C89.0101 98.3531 88.8512 97.5468 88.8533 96.7329ZM30.4533 96.7329C30.4533 93.2929 33.2107 90.5356 36.6453 90.5356C40.08 90.5356 42.832 93.2929 42.832 96.7276C42.832 100.162 40.08 102.92 36.6453 102.92C35.8318 102.922 35.0258 102.764 34.2737 102.454C33.5215 102.145 32.838 101.689 32.2625 101.114C31.6871 100.539 31.231 99.8561 30.9205 99.1042C30.61 98.3523 30.4512 97.5464 30.4533 96.7329ZM5.25867 96.7329C5.25867 93.2929 8.016 90.5356 11.4507 90.5356C14.8853 90.5356 17.6427 93.2929 17.6427 96.7276C17.6455 97.5415 17.4872 98.3479 17.1771 99.1005C16.8669 99.853 16.4109 100.537 15.8354 101.112C15.2598 101.688 14.5761 102.144 13.8236 102.454C13.0711 102.764 12.2646 102.922 11.4507 102.92C10.6376 102.922 9.83219 102.763 9.08064 102.453C8.32908 102.143 7.64623 101.687 7.07133 101.112C6.49642 100.537 6.04079 99.8545 5.73063 99.1029C5.42047 98.3514 5.25656 97.5459 5.25867 96.7329ZM56.1973 85.7889H50.8107V107.458H56.1973V85.7889ZM17.6 107.458H22.9867V85.7889H17.6V87.5275C15.7223 86.2208 13.4876 85.5243 11.2 85.5329C5.00267 85.5329 0 90.5355 0 96.7329C0 102.962 5.00267 107.928 11.2 107.928C13.5733 107.928 15.776 107.208 17.6 105.933V107.458ZM101.195 107.458H106.581V85.7889H101.195V87.5275C99.317 86.2208 97.0823 85.5243 94.7947 85.5329C88.5973 85.5329 83.5947 90.5355 83.5947 96.7329C83.5897 98.2048 83.8761 99.6632 84.4373 101.024C84.9984 102.385 85.8233 103.621 86.8644 104.662C87.9055 105.702 89.1421 106.526 90.5032 107.087C91.8642 107.648 93.3227 107.933 94.7947 107.928C97.168 107.928 99.3707 107.208 101.195 105.933V107.458ZM108.576 100.418C108.747 104.792 112.48 107.885 118.709 107.885C123.803 107.885 128 105.677 128 100.802C128 97.4102 126.091 95.4156 121.68 94.5622L118.245 93.8902C116.037 93.4636 114.512 93.0369 114.512 91.7249C114.512 90.2849 115.995 89.6449 117.861 89.6449C120.581 89.6449 121.68 91.0049 121.765 92.6156H127.195C126.896 88.3755 123.504 85.5329 118.032 85.5329C112.395 85.5329 109.04 88.6262 109.04 92.6582C109.04 97.5755 113.029 98.3809 116.464 99.0209L119.307 99.5275C121.344 99.9116 122.235 100.504 122.235 101.693C122.235 102.754 121.216 103.81 118.795 103.81C115.275 103.81 114.133 101.986 114.091 100.418H108.576ZM42.7947 78.4076V87.5275C40.917 86.2208 38.6823 85.5243 36.3947 85.5329C30.1973 85.5329 25.1947 90.5355 25.1947 96.7329C25.1947 102.962 30.1973 107.928 36.3947 107.928C38.7627 107.928 40.9707 107.208 42.7947 105.933V107.458H48.1813V78.4076H42.7947ZM76 78.4076V87.5275C74.1223 86.2208 71.8876 85.5243 69.6 85.5329C63.408 85.5329 58.4 90.5355 58.4 96.7329C58.3951 98.2048 58.6814 99.6632 59.2426 101.024C59.8038 102.385 60.6287 103.621 61.6697 104.662C62.7108 105.702 63.9475 106.526 65.3085 107.087C66.6696 107.648 68.1281 107.933 69.6 107.928C71.9733 107.928 74.176 107.208 76 105.933V107.458H81.3867V78.4076H76ZM13.9947 72.0076L17.6427 78.4076H42.7947L32.8267 61.1862L14 72.0022L13.9947 72.0076ZM56.1973 83.7942V78.4076H76L54.88 41.8476L36.0053 52.6635L50.8107 78.4076V83.7942H56.1973ZM84.0213 78.4076H109.211L76.64 22.0396L57.808 32.8982L84.0213 78.4076Z" fill="black"/>
</g>
<defs>
<clipPath id="clip0_35_167">
<rect width="128" height="128" fill="white" transform="translate(0 0.983643)"/>
</clipPath>
</defs>
</svg>
