<svg width="37" height="37" viewBox="0 0 37 37" fill="none" xmlns="http://www.w3.org/2000/svg">
<path d="M20.3504 0.985613C21.6639 0.980573 22.9773 0.993774 24.2904 1.02521L24.6396 1.03781C25.0428 1.05221 25.4406 1.07021 25.9211 1.09181C27.8362 1.18181 29.143 1.4842 30.2895 1.92878C31.4774 2.38597 32.4782 3.00514 33.479 4.00591C34.394 4.90517 35.1021 5.99295 35.5542 7.1936C35.9988 8.34016 36.3012 9.64872 36.3912 11.5639C36.4128 12.0426 36.4308 12.4422 36.4452 12.8454L36.456 13.1946C36.488 14.5071 36.5018 15.82 36.4974 17.1329L36.4992 18.4756V20.8335C36.5036 22.147 36.4898 23.4605 36.4578 24.7736L36.447 25.1228C36.4326 25.526 36.4146 25.9238 36.393 26.4043C36.303 28.3195 35.997 29.6262 35.5542 30.7728C35.1036 31.9747 34.3953 33.0634 33.479 33.9623C32.5789 34.8772 31.4906 35.5854 30.2895 36.0376C29.143 36.4822 27.8362 36.7846 25.9211 36.8746C25.4406 36.8962 25.0428 36.9142 24.6396 36.9286L24.2904 36.9394C22.9773 36.9714 21.6639 36.9852 20.3504 36.9808L19.0077 36.9826H16.6516C15.3381 36.987 14.0247 36.9732 12.7116 36.9412L12.3624 36.9304C11.9352 36.9149 11.508 36.8969 11.0809 36.8764C9.16579 36.7864 7.85906 36.4804 6.71072 36.0376C5.50961 35.5865 4.42167 34.8781 3.52308 33.9623C2.60701 33.0628 1.89817 31.9744 1.44599 30.7728C1.00141 29.6262 0.699028 28.3195 0.609033 26.4043C0.588987 25.9772 0.570988 25.5501 0.555036 25.1228L0.546036 24.7736C0.512853 23.4605 0.497852 22.147 0.501039 20.8335V17.1329C0.496015 15.82 0.509216 14.5071 0.540637 13.1946L0.553236 12.8454C0.567635 12.4422 0.585634 12.0426 0.607233 11.5639C0.697229 9.64692 0.999613 8.34196 1.44419 7.1936C1.89664 5.99236 2.60687 4.90488 3.52488 4.00771C4.42285 3.0911 5.51011 2.3816 6.71072 1.92878C7.85906 1.4842 9.16399 1.18181 11.0809 1.09181L12.3624 1.03781L12.7116 1.02881C14.0241 0.995644 15.3369 0.980643 16.6498 0.983813L20.3504 0.985613ZM18.5001 9.98531C17.3077 9.96844 16.1238 10.1887 15.0173 10.6334C13.9107 11.0781 12.9036 11.7382 12.0544 12.5755C11.2052 13.4128 10.5308 14.4105 10.0706 15.5107C9.61032 16.6109 9.37331 17.7915 9.37331 18.9841C9.37331 20.1767 9.61032 21.3573 10.0706 22.4575C10.5308 23.5577 11.2052 24.5554 12.0544 25.3927C12.9036 26.23 13.9107 26.8901 15.0173 27.3348C16.1238 27.7795 17.3077 27.9998 18.5001 27.9829C20.8869 27.9829 23.176 27.0347 24.8638 25.3469C26.5515 23.6592 27.4997 21.3701 27.4997 18.9832C27.4997 16.5963 26.5515 14.3072 24.8638 12.6195C23.176 10.9317 20.8869 9.98531 18.5001 9.98531ZM18.5001 13.5852C19.2174 13.572 19.9301 13.7018 20.5966 13.9671C21.2632 14.2325 21.8701 14.628 22.3821 15.1305C22.8941 15.6331 23.3008 16.2326 23.5785 16.8941C23.8561 17.5556 23.9992 18.2658 23.9993 18.9832C23.9994 19.7006 23.8566 20.4108 23.5791 21.0724C23.3017 21.734 22.8952 22.3337 22.3834 22.8364C21.8716 23.3391 21.2648 23.7348 20.5983 24.0004C19.9319 24.2659 19.2192 24.396 18.5019 24.383C17.0698 24.383 15.6964 23.8141 14.6837 22.8014C13.6711 21.7888 13.1022 20.4153 13.1022 18.9832C13.1022 17.5511 13.6711 16.1776 14.6837 15.165C15.6964 14.1523 17.0698 13.5834 18.5019 13.5834L18.5001 13.5852ZM27.9496 7.2854C27.369 7.30864 26.8198 7.55566 26.4172 7.97472C26.0146 8.39379 25.7897 8.95238 25.7897 9.53352C25.7897 10.1147 26.0146 10.6733 26.4172 11.0923C26.8198 11.5114 27.369 11.7584 27.9496 11.7816C28.5463 11.7816 29.1186 11.5446 29.5405 11.1227C29.9625 10.7007 30.1995 10.1284 30.1995 9.53172C30.1995 8.93501 29.9625 8.36273 29.5405 7.94079C29.1186 7.51884 28.5463 7.2818 27.9496 7.2818V7.2854Z" fill="#1C786D"/>
</svg>
