<svg width="128" height="129" viewBox="0 0 128 129" fill="none" xmlns="http://www.w3.org/2000/svg">
<path d="M128 42.5837L34.3573 82.4557C26.592 85.7411 20.0693 87.3891 14.7946 87.3891C8.82132 87.3891 4.48532 85.2984 1.79732 81.1117C0.10665 78.4237 -0.38935 75.0157 0.303984 70.8824C0.997317 66.7491 2.84265 62.3491 5.82932 57.6664C8.31998 53.8797 12.4 48.9037 18.08 42.7331C16.1534 45.766 14.7406 49.096 13.8986 52.5891C12.4053 58.9624 13.7493 63.6397 17.9306 66.6264C19.92 68.0184 22.656 68.7171 26.144 68.7171C28.928 68.7171 32.064 68.2691 35.552 67.3731L128 42.5837Z" fill="black"/>
</svg>
