<svg width="128" height="129" viewBox="0 0 128 129" fill="none" xmlns="http://www.w3.org/2000/svg">
<g clip-path="url(#clip0_35_169)">
<path d="M127.173 17.0263C124.949 14.1836 121.061 16.4609 119.349 17.4529C107.168 24.6316 105.37 37.2716 101.125 44.5303C97.7864 50.3436 92.3144 54.6103 87.3651 54.9409C83.7064 55.2023 79.7384 54.4929 75.8024 52.7809C66.1651 48.6156 60.9758 43.2236 59.7118 42.2743C57.1144 40.3009 37.1518 20.8609 20.8851 20.0663C20.8851 20.0663 18.9011 16.0663 18.4051 15.9969C17.2211 15.8636 16.0051 18.4023 15.1198 18.6689C14.3198 18.9516 12.9171 15.9383 12.1064 16.0716C11.2904 16.1783 10.4958 19.1969 8.90644 20.7489C7.73311 21.8849 6.31444 21.8156 5.50911 23.2183C5.23177 23.7303 5.32777 24.6316 5.01311 25.4583C4.33577 27.1649 2.07444 27.3463 2.05311 29.1756C2.05311 31.2076 3.95711 31.5969 5.62111 33.0156C6.94377 34.1463 7.03444 34.9463 8.57577 35.4743C9.95177 35.9436 11.9464 34.4769 13.7171 35.0049C15.1944 35.4369 16.6131 35.7516 16.9278 37.2609C17.2158 38.6263 16.9278 40.7703 15.1144 40.5303C14.5171 40.4503 11.9251 39.6023 8.72511 39.9436C4.85844 40.3543 0.442441 41.5916 0.0104413 45.8636C-0.208225 48.2476 2.75178 51.0369 5.63711 50.4823C7.61577 50.1036 6.68244 47.7836 7.76511 46.6636C9.18911 45.2236 17.2158 51.6983 24.6824 51.6983C27.8451 51.6983 30.1811 50.8983 32.5064 48.4716C32.7198 48.3169 33.0024 47.9276 33.3331 47.8849C33.7039 47.9811 34.0556 48.1399 34.3731 48.3543C40.4051 53.1383 44.9544 62.7543 67.0664 62.8663C70.1704 62.9036 73.7331 64.3543 76.6451 67.0103C79.2051 69.3196 80.7198 73.0103 82.1758 76.7436C84.4051 82.3596 88.3678 87.7783 94.3998 93.8263C94.7198 94.1889 99.6798 97.9863 100.053 98.2689C100.117 98.3223 100.501 99.1596 100.336 99.6289C100.229 103.309 99.6798 113.869 107.616 114.312C109.568 114.418 109.082 113.08 109.082 112.125C109.056 110.306 108.736 108.472 109.685 106.578C111.034 104.029 106.88 102.797 106.97 97.2129C107.072 93.0316 103.53 93.7409 101.722 90.5463C100.709 88.7169 99.7598 87.7089 99.8558 85.5009C100.245 72.8076 97.0984 64.4449 95.5624 62.4236C94.3518 60.8556 93.3064 60.2743 94.4584 59.5436C101.072 55.1969 102.592 51.1489 102.592 51.1489C106.112 42.9303 109.29 35.4423 113.658 32.1089C114.544 31.4689 116.8 29.7623 118.202 29.1223C122.272 27.1916 124.458 26.0396 125.605 24.9196C127.504 23.1223 128.992 19.3036 127.173 17.0263Z" fill="black"/>
</g>
<defs>
<clipPath id="clip0_35_169">
<rect width="128" height="128" fill="white" transform="translate(0 0.983643)"/>
</clipPath>
</defs>
</svg>
