<svg width="128" height="129" viewBox="0 0 128 129" fill="none" xmlns="http://www.w3.org/2000/svg">
<path d="M79.952 62.2104C94.6347 56.3437 103.776 52.9731 128 47.0637C114.843 47.9331 85.7493 49.9277 65.696 53.8424L79.952 62.2157M34.2987 81.6877H53.4987C57.3013 75.9277 61.0827 73.1224 65.488 70.0024C62.1422 68.7087 58.7783 67.4623 55.3973 66.2637C43.1467 71.6717 36.3307 78.9304 34.3147 81.6877M38.096 60.7384C20.976 66.8557 11.4613 73.5011 5.03467 81.6877H26.2347C28.2987 78.8131 36.1653 70.5251 50.944 64.7597C46.6897 63.3247 42.4096 61.9839 38.096 60.7384ZM46.88 47.8531H0C47.264 56.3864 70.0427 67.3731 106.667 82.9037C103.536 80.5624 53.0613 50.8344 46.8853 47.8531" fill="black"/>
</svg>
