<svg width="40" height="33" viewBox="0 0 40 33" fill="none" xmlns="http://www.w3.org/2000/svg">
<path d="M39.5 4.7481C38.0645 5.40693 36.5172 5.83987 34.914 6.04693C36.5545 5.04928 37.8222 3.4681 38.4187 1.56693C36.8714 2.5081 35.1563 3.16693 33.348 3.5434C31.8752 1.92458 29.8059 0.983398 27.457 0.983398C23.076 0.983398 19.4967 4.59752 19.4967 9.05869C19.4967 9.69869 19.5712 10.3199 19.7017 10.9034C13.065 10.5646 7.15535 7.34575 3.2218 2.47046C2.53203 3.65634 2.14054 5.04928 2.14054 6.51752C2.14054 9.32222 3.53872 11.8069 5.70124 13.2187C4.37763 13.2187 3.14723 12.8422 2.06597 12.2775V12.334C2.06597 16.2493 4.82505 19.5246 8.47897 20.2587C7.30585 20.5828 6.07427 20.628 4.88098 20.3905C5.38732 21.9951 6.37897 23.3992 7.71652 24.4054C9.05408 25.4115 10.6703 25.9692 12.338 25.9999C9.51107 28.2595 6.00697 29.4809 2.40153 29.4634C1.76769 29.4634 1.13384 29.4258 0.5 29.3505C4.04207 31.6469 8.25526 32.9834 12.7667 32.9834C27.457 32.9834 35.5292 20.6728 35.5292 9.99987C35.5292 9.64222 35.5292 9.3034 35.5105 8.94575C37.0765 7.81634 38.4187 6.38575 39.5 4.7481Z" fill="#1C786D"/>
</svg>
